# xmcd
#
# Track frame offsets: 
#        150
#        15051
#        28721
#        49162
#        59957
#        74412
#        88499
#        102820
#        119191
#        134148
#
# Disc length: 1968 seconds
#
# Revision: 0
# Processed by: cddbd v1.5.2PL0 Copyright (c) Steve Scherf et al.
# Submitted via: ExactAudioCopy v0.99pb3
#
DISCID=9a07ae0a
DTITLE=The Delfonics - Best of Delfonics [CD2)
DYEAR=2007
DGENRE=Soul
TTITLE0=You've Got Yours And I'll Get Mine
TTITLE1=Break Your Promise
TTITLE2=Delfonics Theme
TTITLE3=Funny Feeling
TTITLE4=I Don't Want To Make You Wait
TTITLE5=Over And Over
TTITLE6=I Told You So
TTITLE7=Tell Me This Is A Dream
TTITLE8=Hey! Love
TTITLE9=Walk Right Up To The Sun
EXTD=
EXTT0=
EXTT1=
EXTT2=
EXTT3=
EXTT4=
EXTT5=
EXTT6=
EXTT7=
EXTT8=
EXTT9=
PLAYORDER=
